<?xml version="1.0" standalone="no"?><!DOCTYPE svg PUBLIC "-//W3C//DTD SVG 1.1//EN" "http://www.w3.org/Graphics/SVG/1.1/DTD/svg11.dtd"><svg t="1725597125936" class="icon" viewBox="0 0 1024 1024" version="1.1" xmlns="http://www.w3.org/2000/svg" p-id="6401" xmlns:xlink="http://www.w3.org/1999/xlink" width="200" height="200"><path d="M661.17 361.55c6.72-7.47 18.21-8.13 25.74-1.47l1.57 1.51 65.64 70.55c3.78 3.74 5.87 9.08 5.7 14.61 0.08 4.87-1.43 9.56-4.2 13.33l-1.5 1.8-65.64 70.05c-7.08 7.68-18.09 8.19-25.75 1.54l-1.7-1.67c-6.89-7.7-7.43-19.18-1.29-27.5l1.41-1.67 52.01-55.88-52.01-55.8c-7.54-8.35-7.53-21.06 0.02-29.4z m-325.94-0.03c6.73-7.45 18.2-8.09 25.71-1.43l1.75 1.7c6.94 7.57 7.33 19.46 1.23 27.52l-1.41 1.67-52.03 55.8 52.4 55.83c7.53 8.35 7.52 21.05-0.03 29.39-7.04 7.57-18.17 8.06-25.75 1.49l-1.57-1.51-65.65-70.14a22.749 22.749 0 0 1-1.42-28.38l1.43-1.73 65.35-70.22-0.01 0.01z m227.84-3.57l4.77 2.74c8.8 5.36 11.95 17.22 7.06 26.65l-75.66 140.71c-4.58 8.8-14.66 12.37-23.22 8.52l-2.07-1.1h0.05l-4.83-2.74c-8.8-5.37-11.95-17.22-7.06-26.66l75.66-140.69c5.14-9.33 16.36-12.63 25.29-7.44v0.01z m209.8-185.08H251.12c-43.19 0-78.26 31.18-78.26 69.52v434.83c0 38.34 35.08 69.52 78.26 69.52h521.72c43.2 0 78.28-31.19 78.28-69.52V242.39c0.03-38.34-35.06-69.54-78.24-69.54l-0.01 0.02z m0-52.19c71.99 0 130.45 54.58 130.45 121.7v434.85c-0.1 67.14-58.57 121.7-130.45 121.7H251.12c-71.86 0.01-130.44-54.55-130.44-121.69V242.39c0-67.14 58.57-121.71 130.45-121.71h521.75-0.01z m-26.09 730.45c14.41 0.32 25.83 12.27 25.51 26.68-0.31 13.96-11.55 25.2-25.51 25.51H277.21c-14.41-0.32-25.83-12.27-25.51-26.68 0.31-13.96 11.55-25.2 25.51-25.51h469.58-0.01z" fill="#00a0e9" p-id="6402"></path></svg>